<svg width="35" height="35" viewBox="0 0 45 35" fill="none" xmlns="http://www.w3.org/2000/svg">
    <path d="M22.6194 17.6476C24.3025 16.4561 25.5629 14.7599 26.2181 12.8046C26.8734 10.8493 26.8896 8.73617 26.2644 6.77102C25.6392 4.80587 24.405 3.09058 22.7404 1.87333C21.0757 0.656086 19.067 0 17.0048 0C14.9426 0 12.9339 0.656086 11.2692 1.87333C9.60459 3.09058 8.37038 4.80587 7.74517 6.77102C7.11996 8.73617 7.13617 10.8493 7.79145 12.8046C8.44673 14.7599 9.70711 16.4561 11.3902 17.6476C8.10799 18.6042 5.22409 20.5985 3.17063 23.3319C1.11717 26.0652 0.00473581 29.3904 0 32.8092C0 33.1313 0.127968 33.4403 0.355754 33.6681C0.583539 33.8958 0.892482 34.0238 1.21462 34.0238H32.7947C33.1169 34.0238 33.4258 33.8958 33.6536 33.6681C33.8814 33.4403 34.0093 33.1313 34.0093 32.8092C34.0046 29.3905 32.8922 26.0653 30.8388 23.3319C28.7854 20.5986 25.9016 18.6042 22.6194 17.6476ZM9.71696 9.73142C9.71696 8.29004 10.1444 6.88104 10.9452 5.68258C11.7459 4.48412 12.8841 3.55004 14.2158 2.99845C15.5474 2.44686 17.0128 2.30253 18.4264 2.58373C19.8401 2.86493 21.1387 3.55902 22.1579 4.57822C23.1771 5.59743 23.8712 6.89598 24.1524 8.30966C24.4336 9.72333 24.2892 11.1887 23.7376 12.5203C23.1861 13.852 22.252 14.9901 21.0535 15.7909C19.8551 16.5917 18.446 17.0191 17.0047 17.0191C15.0725 17.0169 13.2201 16.2484 11.8539 14.8822C10.4877 13.5159 9.71916 11.6636 9.71696 9.73142ZM2.4839 31.5946C2.79085 28.2765 4.32497 25.1925 6.78601 22.946C9.24706 20.6995 12.4579 19.4523 15.7901 19.4484H18.2193C21.5515 19.4523 24.7623 20.6995 27.2233 22.946C29.6844 25.1925 31.2185 28.2765 31.5255 31.5946H2.4839Z" />
    <path d="M37.69 18.5024C38.73 17.7661 39.5088 16.718 39.9137 15.5098C40.3186 14.3016 40.3286 12.9959 39.9423 11.7816C39.556 10.5673 38.7933 9.50737 37.7647 8.75522C36.7361 8.00306 35.4949 7.59766 34.2206 7.59766C32.9464 7.59766 31.7051 8.00306 30.6765 8.75522C29.6479 9.50737 28.8853 10.5673 28.499 11.7816C28.1126 12.9959 28.1227 14.3016 28.5276 15.5098C28.9325 16.718 29.7113 17.7661 30.7513 18.5024C28.7232 19.0934 27.7689 19.311 26.5 21C28 23 31.0408 25.3875 31.0378 27.5C31.9883 27.5 31.7306 28.5 31 28.5C30.2694 28.5 31.8831 28.6215 32.0822 28.6215H43.9775C44.1765 28.6215 44.3674 28.5424 44.5082 28.4016C44.6489 28.2609 44.728 28.07 44.728 27.8709C44.7251 25.7585 44.0377 23.7038 42.7689 22.0148C41.5 20.3258 39.7181 19.0935 37.69 18.5024ZM29.7174 13.6108C29.7174 12.7202 29.9815 11.8496 30.4763 11.109C30.9711 10.3685 31.6744 9.79127 32.4973 9.45044C33.3201 9.1096 34.2256 9.02043 35.0991 9.19418C35.9726 9.36794 36.775 9.79683 37.4048 10.4266C38.0346 11.0564 38.4635 11.8588 38.6372 12.7323C38.811 13.6058 38.7218 14.5113 38.381 15.3341C38.0401 16.157 37.463 16.8603 36.7224 17.3551C35.9819 17.8499 35.1112 18.114 34.2206 18.114C33.0267 18.1127 31.882 17.6378 31.0378 16.7936C30.1936 15.9494 29.7187 14.8047 29.7174 13.6108ZM32.0844 27.1204C32.2741 25.0701 29.7174 22.5 27.9063 21.7763C29.427 20.3882 31.411 19.6175 33.47 19.6151H34.9711C37.0301 19.6175 39.0141 20.3882 40.5348 21.7763C42.0555 23.1645 43.0035 25.0701 43.1932 27.1204H32.0844Z" />
</svg>
