<svg width="42" height="37" viewBox="0 0 42 37" fill="none" xmlns="http://www.w3.org/2000/svg">
    <path d="M37.0698 4.91744C36.1413 3.99253 35.0389 3.25882 33.8255 2.75824C32.6121 2.25765 31.3116 2 29.9982 2C28.6848 2 27.3842 2.25765 26.1708 2.75824C24.9574 3.25882 23.855 3.99253 22.9265 4.91744L20.9995 6.83606L19.0725 4.91744C17.197 3.05005 14.6532 2.00097 12.0009 2.00097C9.34846 2.00097 6.80471 3.05005 4.92918 4.91744C3.05366 6.78482 2 9.31754 2 11.9584C2 14.5993 3.05366 17.132 4.92918 18.9994L6.85617 20.918L20.9995 35L35.1429 20.918L37.0698 18.9994C37.9988 18.0749 38.7357 16.9773 39.2385 15.7692C39.7412 14.561 40 13.2661 40 11.9584C40 10.6507 39.7412 9.3558 39.2385 8.14769C38.7357 6.93957 37.9988 5.84192 37.0698 4.91744V4.91744Z" stroke="#436E85" stroke-width="4" stroke-linecap="round" stroke-linejoin="round"/>
    <ellipse cx="12" cy="11.5" rx="10" ry="8.5" fill="#436E85"/>
    <path d="M40 11.5C40 16.1944 35.299 20 29.5 20C23.701 20 19 16.1944 19 11.5C19 6.80558 23.701 3 29.5 3C35.299 3 40 6.80558 40 11.5Z" fill="#436E85"/>
    <rect x="20.6172" y="5.67969" width="20.5169" height="19.7834" transform="rotate(43.2092 20.6172 5.67969)" fill="#436E85"/>
</svg>
