<!--<svg width="24" height="20" viewBox="0 0 24 20" fill="none" xmlns="http://www.w3.org/2000/svg">-->
<!--    <path fill-rule="evenodd" clip-rule="evenodd" d="M14.4568 2.04127C13.9465 1.89547 13.4071 2.14947 13.1944 2.63566L11.4182 6.69545C11.1189 7.37952 10.6332 8.06675 10.0591 8.63165C9.73613 8.94955 9.36405 9.24935 8.95658 9.48965C8.98513 9.65575 9 9.82635 9 10.0002V16.721C10.9662 17.2193 12.4652 17.4976 13.8747 17.5746C15.4555 17.6611 16.9683 17.4964 18.9391 17.0529C19.666 16.8893 20.238 16.2959 20.3907 15.5323L21.541 9.78115C21.6647 9.16235 21.1914 8.58505 20.5604 8.58505H16.6805C15.4446 8.58505 14.5045 7.47529 14.7077 6.25622L15.2112 3.23484C15.2999 2.70302 14.9752 2.18938 14.4568 2.04127ZM8.50064 18.6576C10.5273 19.1718 12.1718 19.4846 13.7655 19.5717C15.5816 19.6709 17.2858 19.475 19.3783 19.0041C20.9084 18.6597 22.0509 17.4295 22.3519 15.9246L23.5021 10.1734C23.8734 8.31695 22.4535 6.58502 20.5604 6.58502H16.6805L17.184 3.56364C17.4399 2.02847 16.5027 0.545781 15.0062 0.118221C13.5333 -0.302629 11.9761 0.430551 11.362 1.83402L9.58589 5.89381C9.39928 6.32035 9.0685 6.8005 8.65628 7.20617C8.43074 7.42813 8.20006 7.60905 7.97781 7.74457C7.45036 7.28181 6.75828 7.00015 6 7.00015H3C1.34315 7.00015 0 8.34325 0 10.0002V17.0002C0 18.6571 1.34315 20.0002 3 20.0002H6C7.04478 20.0002 7.96357 19.4665 8.50064 18.6576ZM3 9.00015C2.44772 9.00015 2 9.44785 2 10.0002V17.0002C2 17.5525 2.44772 18.0002 3 18.0002H6C6.46838 18.0002 6.86381 17.6772 6.97116 17.2406C6.98984 17.1646 7 17.0843 7 17.0002V10.0002C7 9.80655 6.946 9.62875 6.85273 9.47725C6.67511 9.18885 6.35916 9.00015 6 9.00015H3Z"/>-->
<!--</svg>-->
<svg xmlns="http://www.w3.org/2000/svg" viewBox="0 0 512 512"><!--! Font Awesome Pro 6.2.0 by @fontawesome - https://fontawesome.com License - https://fontawesome.com/license (Commercial License) Copyright 2022 Fonticons, Inc. --><path d="M313.4 32.9c26 5.2 42.9 30.5 37.7 56.5l-2.3 11.4c-5.3 26.7-15.1 52.1-28.8 75.2H464c26.5 0 48 21.5 48 48c0 25.3-19.5 46-44.3 47.9c7.7 8.5 12.3 19.8 12.3 32.1c0 23.4-16.8 42.9-38.9 47.1c4.4 7.2 6.9 15.8 6.9 24.9c0 21.3-13.9 39.4-33.1 45.6c.7 3.3 1.1 6.8 1.1 10.4c0 26.5-21.5 48-48 48H294.5c-19 0-37.5-5.6-53.3-16.1l-38.5-25.7C176 420.4 160 390.4 160 358.3V320 272 247.1c0-29.2 13.3-56.7 36-75l7.4-5.9c26.5-21.2 44.6-51 51.2-84.2l2.3-11.4c5.2-26 30.5-42.9 56.5-37.7zM32 192H96c17.7 0 32 14.3 32 32V448c0 17.7-14.3 32-32 32H32c-17.7 0-32-14.3-32-32V224c0-17.7 14.3-32 32-32z"/></svg>