<svg width="140" height="68" viewBox="0 0 440 73" fill="none" xmlns="http://www.w3.org/2000/svg">
    <path d="M0.820312 4.83984H14.5273V72H0.820312V4.83984ZM40.6523 0.714844C42.1706 0.714844 43.5599 0.958333 44.8203 1.44531C46.1094 1.93229 47.2122 2.64844 48.1289 3.59375C49.0456 4.51042 49.7617 5.6276 50.2773 6.94531C50.793 8.26302 51.0508 9.7526 51.0508 11.4141C51.0508 15.1667 49.7617 18.7617 47.1836 22.1992C44.6341 25.6081 40.9102 28.6445 36.0117 31.3086L31.2852 24.5625C32.5742 23.875 33.7057 23.2018 34.6797 22.543C35.6823 21.8841 36.5417 21.2109 37.2578 20.5234C38.0026 19.8359 38.6328 19.1341 39.1484 18.418C39.6927 17.6732 40.1797 16.8854 40.6094 16.0547C39.2057 16.0547 37.931 15.8542 36.7852 15.4531C35.668 15.0521 34.694 14.5078 33.8633 13.8203C33.0612 13.1042 32.431 12.2878 31.9727 11.3711C31.543 10.4258 31.3281 9.42318 31.3281 8.36328C31.3281 7.30339 31.543 6.3151 31.9727 5.39844C32.431 4.45312 33.0612 3.63672 33.8633 2.94922C34.694 2.26172 35.6823 1.71745 36.8281 1.31641C37.974 0.915365 39.2487 0.714844 40.6523 0.714844ZM63.2969 46.8633C63.2969 42.8242 64.056 39.1862 65.5742 35.9492C67.0924 32.6836 69.1836 29.9049 71.8477 27.6133C74.5404 25.293 77.7201 23.5169 81.3867 22.2852C85.082 21.0247 89.0781 20.3945 93.375 20.3945C95.2083 20.3945 97.013 20.5091 98.7891 20.7383C100.594 20.9674 102.312 21.2826 103.945 21.6836C105.607 22.0846 107.154 22.5716 108.586 23.1445C110.047 23.6888 111.336 24.2904 112.453 24.9492V0.714844H125.172V72H112.453V67.2305C111.336 68.0039 110.018 68.7344 108.5 69.4219C106.982 70.1094 105.349 70.7109 103.602 71.2266C101.854 71.7422 100.035 72.1432 98.1445 72.4297C96.2826 72.7448 94.4349 72.9023 92.6016 72.9023C88.3047 72.9023 84.3516 72.2721 80.7422 71.0117C77.1615 69.7513 74.082 67.9753 71.5039 65.6836C68.9258 63.3919 66.9062 60.6562 65.4453 57.4766C64.013 54.2682 63.2969 50.7305 63.2969 46.8633ZM76.6602 46.8633C76.6602 48.8971 77.0612 50.8164 77.8633 52.6211C78.694 54.4258 79.8685 56.0156 81.3867 57.3906C82.9336 58.737 84.7812 59.8112 86.9297 60.6133C89.1068 61.3867 91.5417 61.7734 94.2344 61.7734C95.9531 61.7734 97.6719 61.6159 99.3906 61.3008C101.109 60.957 102.757 60.4844 104.332 59.8828C105.936 59.2812 107.426 58.5508 108.801 57.6914C110.204 56.832 111.422 55.8724 112.453 54.8125V37.2383C111.164 36.207 109.803 35.3333 108.371 34.6172C106.939 33.901 105.478 33.3138 103.988 32.8555C102.499 32.3971 100.995 32.0677 99.4766 31.8672C97.9583 31.638 96.4831 31.5234 95.0508 31.5234C92.1289 31.5234 89.5221 31.9245 87.2305 32.7266C84.9674 33.5 83.0482 34.5742 81.4727 35.9492C79.9258 37.3242 78.737 38.9427 77.9062 40.8047C77.0755 42.6667 76.6602 44.6862 76.6602 46.8633ZM171.578 4.83984H185.199V60.0547H224.258V72H171.578V4.83984ZM232.852 46.6484C232.852 43.0104 233.582 39.6016 235.043 36.4219C236.533 33.2422 238.638 30.4635 241.359 28.0859C244.109 25.7083 247.418 23.832 251.285 22.457C255.181 21.082 259.549 20.3945 264.391 20.3945C269.232 20.3945 273.586 21.082 277.453 22.457C281.349 23.832 284.658 25.7083 287.379 28.0859C290.129 30.4635 292.234 33.2422 293.695 36.4219C295.185 39.6016 295.93 43.0104 295.93 46.6484C295.93 50.2865 295.185 53.6953 293.695 56.875C292.234 60.0547 290.129 62.8333 287.379 65.2109C284.658 67.5885 281.349 69.4648 277.453 70.8398C273.586 72.2148 269.232 72.9023 264.391 72.9023C259.549 72.9023 255.181 72.2148 251.285 70.8398C247.418 69.4648 244.109 67.5885 241.359 65.2109C238.638 62.8333 236.533 60.0547 235.043 56.875C233.582 53.6953 232.852 50.2865 232.852 46.6484ZM246.215 46.6484C246.215 48.6823 246.616 50.6159 247.418 52.4492C248.249 54.2539 249.438 55.8581 250.984 57.2617C252.56 58.6367 254.465 59.7396 256.699 60.5703C258.962 61.3724 261.526 61.7734 264.391 61.7734C267.255 61.7734 269.805 61.3724 272.039 60.5703C274.302 59.7396 276.207 58.6367 277.754 57.2617C279.329 55.8581 280.518 54.2539 281.32 52.4492C282.151 50.6159 282.566 48.6823 282.566 46.6484C282.566 44.6146 282.151 42.681 281.32 40.8477C280.518 39.0143 279.329 37.4102 277.754 36.0352C276.207 34.6315 274.302 33.5286 272.039 32.7266C269.805 31.8958 267.255 31.4805 264.391 31.4805C261.526 31.4805 258.962 31.8958 256.699 32.7266C254.465 33.5286 252.56 34.6315 250.984 36.0352C249.438 37.4102 248.249 39.0143 247.418 40.8477C246.616 42.681 246.215 44.6146 246.215 46.6484ZM305.727 46.6484C305.727 43.0104 306.457 39.6016 307.918 36.4219C309.408 33.2422 311.513 30.4635 314.234 28.0859C316.984 25.7083 320.293 23.832 324.16 22.457C328.056 21.082 332.424 20.3945 337.266 20.3945C342.107 20.3945 346.461 21.082 350.328 22.457C354.224 23.832 357.533 25.7083 360.254 28.0859C363.004 30.4635 365.109 33.2422 366.57 36.4219C368.06 39.6016 368.805 43.0104 368.805 46.6484C368.805 50.2865 368.06 53.6953 366.57 56.875C365.109 60.0547 363.004 62.8333 360.254 65.2109C357.533 67.5885 354.224 69.4648 350.328 70.8398C346.461 72.2148 342.107 72.9023 337.266 72.9023C332.424 72.9023 328.056 72.2148 324.16 70.8398C320.293 69.4648 316.984 67.5885 314.234 65.2109C311.513 62.8333 309.408 60.0547 307.918 56.875C306.457 53.6953 305.727 50.2865 305.727 46.6484ZM319.09 46.6484C319.09 48.6823 319.491 50.6159 320.293 52.4492C321.124 54.2539 322.312 55.8581 323.859 57.2617C325.435 58.6367 327.34 59.7396 329.574 60.5703C331.837 61.3724 334.401 61.7734 337.266 61.7734C340.13 61.7734 342.68 61.3724 344.914 60.5703C347.177 59.7396 349.082 58.6367 350.629 57.2617C352.204 55.8581 353.393 54.2539 354.195 52.4492C355.026 50.6159 355.441 48.6823 355.441 46.6484C355.441 44.6146 355.026 42.681 354.195 40.8477C353.393 39.0143 352.204 37.4102 350.629 36.0352C349.082 34.6315 347.177 33.5286 344.914 32.7266C342.68 31.8958 340.13 31.4805 337.266 31.4805C334.401 31.4805 331.837 31.8958 329.574 32.7266C327.34 33.5286 325.435 34.6315 323.859 36.0352C322.312 37.4102 321.124 39.0143 320.293 40.8477C319.491 42.681 319.09 44.6146 319.09 46.6484ZM381.695 0.714844H394.414V42.8242L418.133 21.2969H437.598L411.086 45.0156L439.273 72H420.195L401.332 53.7383L394.414 59.9258V72H381.695V0.714844Z" fill="#436E85"/>
    <path d="M0.820312 4.83984V1.33984C-1.11268 1.33984 -2.67969 2.90685 -2.67969 4.83984H0.820312ZM14.5273 4.83984H18.0273C18.0273 2.90685 16.4603 1.33984 14.5273 1.33984V4.83984ZM14.5273 72V75.5C16.4603 75.5 18.0273 73.933 18.0273 72H14.5273ZM0.820312 72H-2.67969C-2.67969 73.933 -1.11268 75.5 0.820313 75.5L0.820312 72ZM0.820312 8.33984H14.5273V1.33984H0.820312V8.33984ZM11.0273 4.83984V72H18.0273V4.83984H11.0273ZM14.5273 68.5H0.820312V75.5H14.5273V68.5ZM4.32031 72V4.83984H-2.67969V72H4.32031ZM44.8203 1.44531L43.5589 4.71011C43.5671 4.71326 43.5752 4.71638 43.5834 4.71946L44.8203 1.44531ZM48.1289 3.59375L45.6163 6.03026C45.6287 6.04314 45.6413 6.05593 45.654 6.06862L48.1289 3.59375ZM50.2773 6.94531L47.018 8.22071L50.2773 6.94531ZM47.1836 22.1992L44.3836 20.0992L44.3808 20.103L47.1836 22.1992ZM36.0117 31.3086L33.1453 33.3169C34.1668 34.7749 36.12 35.2338 37.6839 34.3833L36.0117 31.3086ZM31.2852 24.5625L29.6381 21.4743C28.754 21.9458 28.1144 22.7736 27.8812 23.7481C27.6481 24.7226 27.8438 25.7502 28.4187 26.5708L31.2852 24.5625ZM34.6797 22.543L32.7576 19.618C32.7445 19.6266 32.7315 19.6352 32.7186 19.644L34.6797 22.543ZM37.2578 20.5234L34.8838 17.9516C34.8671 17.9671 34.8504 17.9828 34.834 17.9986L37.2578 20.5234ZM39.1484 18.418L36.3226 16.3529C36.3177 16.3596 36.3129 16.3662 36.3081 16.3729L39.1484 18.418ZM40.6094 16.0547L43.7181 17.6627C44.2793 16.5777 44.2343 15.2786 43.5992 14.2351C42.9641 13.1916 41.8309 12.5547 40.6094 12.5547V16.0547ZM36.7852 15.4531L35.6026 18.7473C35.6114 18.7504 35.6202 18.7536 35.6289 18.7566L36.7852 15.4531ZM33.8633 13.8203L31.5322 16.4311C31.5649 16.4602 31.5981 16.4888 31.6318 16.5167L33.8633 13.8203ZM31.9727 11.3711L28.7864 12.8194C28.8042 12.8587 28.8228 12.8977 28.8422 12.9363L31.9727 11.3711ZM31.9727 5.39844L28.8233 3.87148C28.8166 3.88525 28.81 3.89906 28.8035 3.91292L31.9727 5.39844ZM33.8633 2.94922L31.6318 0.252839C31.6163 0.265699 31.6008 0.278694 31.5855 0.291821L33.8633 2.94922ZM40.6523 4.21484C41.7922 4.21484 42.7475 4.39662 43.5589 4.71011L46.0817 -1.81948C44.3723 -2.47995 42.5489 -2.78516 40.6523 -2.78516V4.21484ZM43.5834 4.71946C44.4137 5.03314 45.0747 5.47183 45.6163 6.03026L50.6416 1.15724C49.3497 -0.174951 47.805 -1.16856 46.0572 -1.82884L43.5834 4.71946ZM45.654 6.06862C46.1991 6.61368 46.6621 7.31114 47.018 8.22071L53.5367 5.66991C52.8614 3.94407 51.8921 2.40715 50.6038 1.11888L45.654 6.06862ZM47.018 8.22071C47.3495 9.06784 47.5508 10.1144 47.5508 11.4141H54.5508C54.5508 9.39084 54.2365 7.4582 53.5367 5.66991L47.018 8.22071ZM47.5508 11.4141C47.5508 14.3023 46.5761 17.1759 44.3836 20.0992L49.9836 24.2992C52.9473 20.3476 54.5508 16.0311 54.5508 11.4141H47.5508ZM44.3808 20.103C42.2116 23.0034 38.9263 25.7393 34.3395 28.2339L37.6839 34.3833C42.894 31.5497 47.0567 28.2127 49.9864 24.2954L44.3808 20.103ZM38.8782 29.3003L34.1516 22.5542L28.4187 26.5708L33.1453 33.3169L38.8782 29.3003ZM32.9322 27.6507C34.3045 26.9188 35.5448 26.1834 36.6408 25.442L32.7186 19.644C31.8667 20.2203 30.8439 20.8312 29.6381 21.4743L32.9322 27.6507ZM36.6018 25.4679C37.7479 24.7148 38.7829 23.9111 39.6817 23.0483L34.834 17.9986C34.3004 18.5108 33.6167 19.0534 32.7576 19.618L36.6018 25.4679ZM39.6318 23.0952C40.5244 22.2713 41.3173 21.3957 41.9888 20.463L36.3081 16.3729C35.9483 16.8726 35.4808 17.4006 34.8838 17.9516L39.6318 23.0952ZM41.9743 20.483C42.6259 19.5914 43.2072 18.6506 43.7181 17.6627L37.5006 14.4467C37.1522 15.1203 36.7595 15.755 36.3226 16.3529L41.9743 20.483ZM40.6094 12.5547C39.5391 12.5547 38.6626 12.402 37.9414 12.1496L35.6289 18.7566C37.1994 19.3063 38.8724 19.5547 40.6094 19.5547V12.5547ZM37.9677 12.1589C37.1938 11.8811 36.5832 11.5281 36.0948 11.1239L31.6318 16.5167C32.8048 17.4875 34.1422 18.223 35.6026 18.7473L37.9677 12.1589ZM36.1943 11.2095C35.706 10.7735 35.3539 10.3073 35.1032 9.80585L28.8422 12.9363C29.5081 14.2682 30.4164 15.4348 31.5322 16.4311L36.1943 11.2095ZM35.1589 9.92278C34.9404 9.44192 34.8281 8.93421 34.8281 8.36328H27.8281C27.8281 9.91215 28.1456 11.4096 28.7864 12.8194L35.1589 9.92278ZM34.8281 8.36328C34.8281 7.79214 34.9402 7.31386 35.1418 6.88396L28.8035 3.91292C28.1457 5.31635 27.8281 6.81464 27.8281 8.36328H34.8281ZM35.122 6.92539C35.3694 6.41524 35.702 5.98297 36.1411 5.60662L31.5855 0.291821C30.4204 1.29047 29.4926 2.49101 28.8233 3.87148L35.122 6.92539ZM36.0948 5.6456C36.5683 5.25371 37.1812 4.90101 37.9844 4.61991L35.6719 -1.9871C34.1834 -1.46611 32.8197 -0.730274 31.6318 0.252839L36.0948 5.6456ZM37.9844 4.61991C38.7056 4.36749 39.582 4.21484 40.6523 4.21484V-2.78516C38.9154 -2.78516 37.2424 -2.53676 35.6719 -1.9871L37.9844 4.61991ZM65.5742 35.9492L68.743 37.4355L68.748 37.4247L65.5742 35.9492ZM71.8477 27.6133L74.1301 30.2666L74.1324 30.2647L71.8477 27.6133ZM81.3867 22.2852L82.5013 25.6029C82.5064 25.6012 82.5115 25.5995 82.5166 25.5978L81.3867 22.2852ZM98.7891 20.7383L98.3412 24.2095L98.3482 24.2104L98.7891 20.7383ZM103.945 21.6836L103.11 25.0826L103.124 25.0859L103.945 21.6836ZM108.586 23.1445L107.286 26.3942C107.312 26.4045 107.338 26.4146 107.364 26.4243L108.586 23.1445ZM112.453 24.9492L110.675 27.964C111.757 28.6021 113.098 28.6114 114.189 27.9884C115.28 27.3653 115.953 26.2054 115.953 24.9492H112.453ZM112.453 0.714844V-2.78516C110.52 -2.78516 108.953 -1.21815 108.953 0.714844H112.453ZM125.172 0.714844H128.672C128.672 -1.21815 127.105 -2.78516 125.172 -2.78516V0.714844ZM125.172 72V75.5C127.105 75.5 128.672 73.933 128.672 72H125.172ZM112.453 72H108.953C108.953 73.933 110.52 75.5 112.453 75.5V72ZM112.453 67.2305H115.953C115.953 65.9287 115.231 64.7344 114.077 64.1302C112.924 63.5261 111.531 63.6118 110.461 64.3528L112.453 67.2305ZM103.602 71.2266L102.611 67.8697L103.602 71.2266ZM98.1445 72.4297L97.6202 68.9692C97.6003 68.9722 97.5804 68.9754 97.5605 68.9788L98.1445 72.4297ZM80.7422 71.0117L79.5801 74.3132L79.5883 74.316L80.7422 71.0117ZM71.5039 65.6836L69.1786 68.2995L71.5039 65.6836ZM65.4453 57.4766L62.2493 58.9033C62.2545 58.9149 62.2597 58.9264 62.2649 58.9378L65.4453 57.4766ZM77.8633 52.6211L74.6649 54.0426C74.6712 54.0566 74.6775 54.0706 74.6839 54.0846L77.8633 52.6211ZM81.3867 57.3906L79.0372 59.9848C79.0543 60.0003 79.0715 60.0156 79.0889 60.0307L81.3867 57.3906ZM86.9297 60.6133L85.7055 63.8922C85.723 63.8987 85.7405 63.9051 85.758 63.9113L86.9297 60.6133ZM99.3906 61.3008L100.022 64.7434C100.04 64.74 100.059 64.7365 100.077 64.7328L99.3906 61.3008ZM104.332 59.8828L103.103 56.6057C103.097 56.6081 103.09 56.6106 103.084 56.613L104.332 59.8828ZM108.801 57.6914L106.973 54.7064C106.964 54.712 106.955 54.7177 106.946 54.7234L108.801 57.6914ZM112.453 54.8125L114.962 57.2532C115.597 56.5998 115.953 55.7242 115.953 54.8125H112.453ZM112.453 37.2383H115.953C115.953 36.175 115.47 35.1694 114.64 34.5052L112.453 37.2383ZM103.988 32.8555L102.959 36.2007L103.988 32.8555ZM99.4766 31.8672L98.9542 35.328C98.9755 35.3312 98.9969 35.3342 99.0183 35.3371L99.4766 31.8672ZM87.2305 32.7266L88.3624 36.0385C88.3705 36.0357 88.3786 36.0329 88.3867 36.0301L87.2305 32.7266ZM81.4727 35.9492L79.1713 33.3122C79.1633 33.3192 79.1553 33.3262 79.1474 33.3333L81.4727 35.9492ZM66.7969 46.8633C66.7969 43.2711 67.4696 40.1504 68.743 37.4355L62.4054 34.463C60.6424 38.222 59.7969 42.3774 59.7969 46.8633H66.7969ZM68.748 37.4247C70.0616 34.5991 71.8531 32.2254 74.1301 30.2666L69.5652 24.9599C66.5141 27.5845 64.1233 30.768 62.4004 34.4737L68.748 37.4247ZM74.1324 30.2647C76.4527 28.2653 79.226 26.7032 82.5013 25.6029L80.2721 18.9674C76.2141 20.3306 72.6281 22.3206 69.5629 24.9619L74.1324 30.2647ZM82.5166 25.5978C85.8134 24.4733 89.424 23.8945 93.375 23.8945V16.8945C88.7322 16.8945 84.3506 17.5762 80.2568 18.9725L82.5166 25.5978ZM93.375 23.8945C95.0621 23.8945 96.7171 24 98.3412 24.2095L99.237 17.2671C97.3089 17.0183 95.3545 16.8945 93.375 16.8945V23.8945ZM98.3482 24.2104C100.031 24.4241 101.618 24.7159 103.11 25.0826L104.78 18.2846C103.007 17.8492 101.157 17.5108 99.23 17.2662L98.3482 24.2104ZM103.124 25.0859C104.64 25.4517 106.025 25.8898 107.286 26.3942L109.886 19.8949C108.282 19.2534 106.574 18.7175 104.767 18.2813L103.124 25.0859ZM107.364 26.4243C108.669 26.9106 109.766 27.4281 110.675 27.964L114.231 21.9344C112.905 21.1527 111.424 20.467 109.808 19.8647L107.364 26.4243ZM115.953 24.9492V0.714844H108.953V24.9492H115.953ZM112.453 4.21484H125.172V-2.78516H112.453V4.21484ZM121.672 0.714844V72H128.672V0.714844H121.672ZM125.172 68.5H112.453V75.5H125.172V68.5ZM115.953 72V67.2305H108.953V72H115.953ZM110.461 64.3528C109.55 64.9831 108.424 65.6142 107.056 66.2335L109.944 72.6102C111.613 71.8546 113.121 71.0247 114.445 70.1081L110.461 64.3528ZM107.056 66.2335C105.698 66.8487 104.218 67.3955 102.611 67.8697L104.592 74.5835C106.48 74.0263 108.266 73.3701 109.944 72.6102L107.056 66.2335ZM102.611 67.8697C101.024 68.338 99.361 68.7054 97.6202 68.9692L98.6689 75.8902C100.709 75.581 102.685 75.1464 104.592 74.5835L102.611 67.8697ZM97.5605 68.9788C95.8857 69.2622 94.2334 69.4023 92.6016 69.4023V76.4023C94.6364 76.4023 96.6794 76.2274 98.7285 75.8806L97.5605 68.9788ZM92.6016 69.4023C88.6494 69.4023 85.0916 68.8233 81.8961 67.7074L79.5883 74.316C83.6115 75.721 87.96 76.4023 92.6016 76.4023V69.4023ZM81.9043 67.7103C78.7089 66.5855 76.0351 65.0285 73.8292 63.0677L69.1786 68.2995C72.1289 70.922 75.614 72.9171 79.5801 74.3132L81.9043 67.7103ZM73.8292 63.0677C71.6182 61.1024 69.8875 58.7617 68.6257 56.0153L62.2649 58.9378C63.925 62.5508 66.2333 65.6815 69.1786 68.2995L73.8292 63.0677ZM68.6413 56.0498C67.4288 53.3338 66.7969 50.2887 66.7969 46.8633H59.7969C59.7969 51.1723 60.5972 55.2026 62.2493 58.9033L68.6413 56.0498ZM73.1602 46.8633C73.1602 49.3719 73.658 51.7769 74.6649 54.0426L81.0616 51.1996C80.4644 49.8559 80.1602 48.4224 80.1602 46.8633H73.1602ZM74.6839 54.0846C75.7183 56.3317 77.18 58.3029 79.0372 59.9848L83.7362 54.7964C82.5569 53.7284 81.6697 52.5198 81.0426 51.1576L74.6839 54.0846ZM79.0889 60.0307C80.9877 61.6833 83.21 62.9606 85.7055 63.8922L88.1538 57.3343C86.3525 56.6618 84.8795 55.7906 83.6846 54.7506L79.0889 60.0307ZM85.758 63.9113C88.3678 64.8385 91.2072 65.2734 94.2344 65.2734V58.2734C91.8761 58.2734 89.8457 57.9349 88.1014 57.3152L85.758 63.9113ZM94.2344 65.2734C96.1683 65.2734 98.0983 65.096 100.022 64.7434L98.7595 57.8582C97.2455 58.1357 95.7379 58.2734 94.2344 58.2734V65.2734ZM100.077 64.7328C101.98 64.3523 103.815 63.8265 105.58 63.1526L103.084 56.613C101.698 57.1423 100.239 57.5618 98.7042 57.8687L100.077 64.7328ZM105.561 63.16C107.371 62.4811 109.072 61.6492 110.656 60.6594L106.946 54.7234C105.779 55.4524 104.501 56.0814 103.103 56.6057L105.561 63.16ZM110.628 60.6764C112.253 59.6816 113.706 58.5442 114.962 57.2532L109.945 52.3718C109.138 53.2006 108.156 53.9825 106.973 54.7064L110.628 60.6764ZM115.953 54.8125V37.2383H108.953V54.8125H115.953ZM114.64 34.5052C113.164 33.3248 111.596 32.3164 109.936 31.4867L106.806 37.7477C108.011 38.3502 109.164 39.0893 110.267 39.9713L114.64 34.5052ZM109.936 31.4867C108.336 30.6867 106.696 30.0268 105.018 29.5102L102.959 36.2007C104.259 36.6008 105.541 37.1154 106.806 37.7477L109.936 31.4867ZM105.018 29.5102C103.345 28.9955 101.65 28.6238 99.9348 28.3973L99.0183 35.3371C100.34 35.5116 101.653 35.7987 102.959 36.2007L105.018 29.5102ZM99.9989 28.4064C98.3201 28.153 96.6699 28.0234 95.0508 28.0234V35.0234C96.2962 35.0234 97.5966 35.1231 98.9542 35.328L99.9989 28.4064ZM95.0508 28.0234C91.8129 28.0234 88.8044 28.4675 86.0742 29.4231L88.3867 36.0301C90.2399 35.3814 92.4449 35.0234 95.0508 35.0234V28.0234ZM86.0985 29.4147C83.4669 30.3141 81.1347 31.5987 79.1713 33.3122L83.774 38.5862C84.9616 37.5498 86.468 36.6859 88.3624 36.0385L86.0985 29.4147ZM79.1474 33.3333C77.2347 35.0334 75.7463 37.0557 74.7099 39.3786L81.1026 42.2307C81.7276 40.8297 82.6168 39.615 83.7979 38.5652L79.1474 33.3333ZM74.7099 39.3786C73.6656 41.7193 73.1602 44.2287 73.1602 46.8633H80.1602C80.1602 45.1437 80.4854 43.614 81.1026 42.2307L74.7099 39.3786ZM171.578 4.83984V1.33984C169.645 1.33984 168.078 2.90685 168.078 4.83984H171.578ZM185.199 4.83984H188.699C188.699 2.90685 187.132 1.33984 185.199 1.33984V4.83984ZM185.199 60.0547H181.699C181.699 61.9877 183.266 63.5547 185.199 63.5547V60.0547ZM224.258 60.0547H227.758C227.758 58.1217 226.191 56.5547 224.258 56.5547V60.0547ZM224.258 72V75.5C226.191 75.5 227.758 73.933 227.758 72H224.258ZM171.578 72H168.078C168.078 73.933 169.645 75.5 171.578 75.5V72ZM171.578 8.33984H185.199V1.33984H171.578V8.33984ZM181.699 4.83984V60.0547H188.699V4.83984H181.699ZM185.199 63.5547H224.258V56.5547H185.199V63.5547ZM220.758 60.0547V72H227.758V60.0547H220.758ZM224.258 68.5H171.578V75.5H224.258V68.5ZM175.078 72V4.83984H168.078V72H175.078ZM235.043 36.4219L231.874 34.9371C231.87 34.9449 231.866 34.9528 231.863 34.9606L235.043 36.4219ZM241.359 28.0859L239.07 25.4383C239.066 25.4423 239.061 25.4462 239.057 25.4502L241.359 28.0859ZM251.285 22.457L250.12 19.1566L250.113 19.1593L251.285 22.457ZM277.453 22.457L276.281 25.7548L276.288 25.7575L277.453 22.457ZM287.379 28.0859L285.076 30.7217C285.081 30.7257 285.085 30.7296 285.09 30.7336L287.379 28.0859ZM293.695 36.4219L290.515 37.8831C290.519 37.891 290.522 37.8988 290.526 37.9067L293.695 36.4219ZM293.695 56.875L290.526 55.3902C290.522 55.398 290.519 55.4059 290.515 55.4137L293.695 56.875ZM287.379 65.2109L285.09 62.5633C285.085 62.5673 285.081 62.5712 285.076 62.5752L287.379 65.2109ZM277.453 70.8398L276.288 67.5394L276.281 67.5421L277.453 70.8398ZM251.285 70.8398L250.113 74.1376L250.12 74.1403L251.285 70.8398ZM241.359 65.2109L239.057 67.8467C239.061 67.8507 239.066 67.8546 239.07 67.8586L241.359 65.2109ZM235.043 56.875L231.863 58.3363C231.866 58.3441 231.87 58.352 231.874 58.3598L235.043 56.875ZM247.418 52.4492L244.211 53.8521C244.22 53.8724 244.229 53.8926 244.239 53.9127L247.418 52.4492ZM250.984 57.2617L248.632 59.8537C248.649 59.8689 248.666 59.8839 248.683 59.8987L250.984 57.2617ZM256.699 60.5703L255.48 63.8509C255.496 63.8571 255.513 63.8633 255.53 63.8692L256.699 60.5703ZM272.039 60.5703L273.222 63.8645C273.229 63.8617 273.237 63.8588 273.245 63.8559L272.039 60.5703ZM277.754 57.2617L280.079 59.8777L280.082 59.875L277.754 57.2617ZM281.32 52.4492L278.132 51.0047C278.129 51.0123 278.125 51.02 278.122 51.0277L281.32 52.4492ZM281.32 40.8477L278.114 42.2505C278.12 42.2645 278.126 42.2784 278.132 42.2922L281.32 40.8477ZM277.754 36.0352L275.402 38.6271C275.419 38.6423 275.436 38.6573 275.453 38.6721L277.754 36.0352ZM272.039 32.7266L270.819 36.0072C270.836 36.0134 270.853 36.0195 270.87 36.0255L272.039 32.7266ZM256.699 32.7266L257.882 36.0207C257.89 36.0179 257.897 36.0151 257.905 36.0122L256.699 32.7266ZM250.984 36.0352L253.31 38.6511L253.313 38.6485L250.984 36.0352ZM247.418 40.8477L244.23 39.4031C244.224 39.417 244.218 39.4309 244.211 39.4448L247.418 40.8477ZM236.352 46.6484C236.352 43.4943 236.981 40.5862 238.223 37.8831L231.863 34.9606C230.183 38.617 229.352 42.5265 229.352 46.6484H236.352ZM238.212 37.9067C239.49 35.1795 241.295 32.7894 243.662 30.7217L239.057 25.4502C235.981 28.1377 233.575 31.3048 231.874 34.9371L238.212 37.9067ZM243.648 30.7336C246.03 28.6744 248.947 27.0029 252.458 25.7548L250.113 19.1593C245.889 20.6612 242.189 22.7423 239.07 25.4383L243.648 30.7336ZM252.45 25.7575C255.914 24.5351 259.88 23.8945 264.391 23.8945V16.8945C259.219 16.8945 254.448 17.629 250.12 19.1566L252.45 25.7575ZM264.391 23.8945C268.902 23.8945 272.851 24.5352 276.281 25.7548L278.626 19.1593C274.321 17.6288 269.561 16.8945 264.391 16.8945V23.8945ZM276.288 25.7575C279.825 27.0059 282.733 28.6744 285.076 30.7217L289.682 25.4502C286.582 22.7422 282.872 20.6581 278.618 19.1566L276.288 25.7575ZM285.09 30.7336C287.476 32.797 289.271 35.1758 290.515 37.8831L296.876 34.9606C295.198 31.3085 292.781 28.1301 289.668 25.4383L285.09 30.7336ZM290.526 37.9067C291.79 40.6047 292.43 43.5046 292.43 46.6484H299.43C299.43 42.5163 298.58 38.5984 296.865 34.9371L290.526 37.9067ZM292.43 46.6484C292.43 49.7923 291.79 52.6922 290.526 55.3902L296.865 58.3598C298.58 54.6985 299.43 50.7806 299.43 46.6484H292.43ZM290.515 55.4137C289.271 58.121 287.476 60.4999 285.09 62.5633L289.668 67.8586C292.781 65.1668 295.198 61.9883 296.876 58.3363L290.515 55.4137ZM285.076 62.5752C282.733 64.6225 279.825 66.291 276.288 67.5394L278.618 74.1403C282.872 72.6387 286.582 70.5546 289.682 67.8467L285.076 62.5752ZM276.281 67.5421C272.851 68.7616 268.902 69.4023 264.391 69.4023V76.4023C269.561 76.4023 274.321 75.668 278.626 74.1376L276.281 67.5421ZM264.391 69.4023C259.88 69.4023 255.914 68.7618 252.45 67.5394L250.12 74.1403C254.448 75.6679 259.219 76.4023 264.391 76.4023V69.4023ZM252.458 67.5421C248.947 66.294 246.03 64.6225 243.648 62.5633L239.07 67.8586C242.189 70.5546 245.889 72.6357 250.113 74.1376L252.458 67.5421ZM243.662 62.5752C241.295 60.5074 239.49 58.1173 238.212 55.3902L231.874 58.3598C233.575 61.992 235.981 65.1592 239.057 67.8467L243.662 62.5752ZM238.223 55.4137C236.981 52.7107 236.352 49.8025 236.352 46.6484H229.352C229.352 50.7704 230.183 54.6799 231.863 58.3363L238.223 55.4137ZM242.715 46.6484C242.715 49.157 243.213 51.569 244.211 53.8521L250.625 51.0464C250.019 49.6628 249.715 48.2076 249.715 46.6484H242.715ZM244.239 53.9127C245.276 56.1672 246.755 58.15 248.632 59.8537L253.336 54.6698C252.12 53.5662 251.221 52.3406 250.597 50.9857L244.239 53.9127ZM248.683 59.8987C250.619 61.5879 252.904 62.8932 255.48 63.8509L257.919 57.2897C256.026 56.586 254.501 55.6855 253.286 54.6247L248.683 59.8987ZM255.53 63.8692C258.233 64.8273 261.203 65.2734 264.391 65.2734V58.2734C261.85 58.2734 259.691 57.9175 257.868 57.2714L255.53 63.8692ZM264.391 65.2734C267.577 65.2734 270.539 64.8276 273.222 63.8645L270.857 57.2761C269.071 57.9172 266.933 58.2734 264.391 58.2734V65.2734ZM273.245 63.8559C275.853 62.8986 278.155 61.5878 280.079 59.8777L275.429 54.6458C274.259 55.6856 272.751 56.5806 270.833 57.2847L273.245 63.8559ZM280.082 59.875C282.003 58.1635 283.501 56.1606 284.519 53.8707L278.122 51.0277C277.536 52.3472 276.656 53.5526 275.426 54.6484L280.082 59.875ZM284.508 53.8938C285.547 51.6017 286.066 49.1751 286.066 46.6484H279.066C279.066 48.1894 278.755 49.63 278.132 51.0047L284.508 53.8938ZM286.066 46.6484C286.066 44.1217 285.547 41.6951 284.508 39.4031L278.132 42.2922C278.755 43.6668 279.066 45.1074 279.066 46.6484H286.066ZM284.527 39.4448C283.508 37.117 282.002 35.0971 280.055 33.3982L275.453 38.6721C276.657 39.7233 277.528 40.9117 278.114 42.2505L284.527 39.4448ZM280.106 33.4432C278.168 31.6848 275.844 30.3617 273.208 29.4276L270.87 36.0255C272.76 36.6956 274.246 37.5783 275.402 38.6271L280.106 33.4432ZM273.259 29.446C270.564 28.4442 267.59 27.9805 264.391 27.9805V34.9805C266.921 34.9805 269.045 35.3475 270.819 36.0072L273.259 29.446ZM264.391 27.9805C261.19 27.9805 258.208 28.4445 255.493 29.4409L257.905 36.0122C259.717 35.3472 261.862 34.9805 264.391 34.9805V27.9805ZM255.517 29.4324C252.913 30.3671 250.606 31.6849 248.656 33.4218L253.313 38.6485C254.514 37.5781 256.017 36.6902 257.882 36.0207L255.517 29.4324ZM248.659 33.4192C246.756 35.1105 245.269 37.1104 244.23 39.4031L250.606 42.2922C251.229 40.9182 252.119 39.7098 253.31 38.6511L248.659 33.4192ZM244.211 39.4448C243.213 41.7279 242.715 44.1399 242.715 46.6484H249.715C249.715 45.0893 250.019 43.6341 250.625 42.2505L244.211 39.4448ZM307.918 36.4219L304.749 34.9371C304.745 34.9449 304.741 34.9528 304.738 34.9606L307.918 36.4219ZM314.234 28.0859L311.945 25.4383C311.941 25.4423 311.936 25.4462 311.932 25.4502L314.234 28.0859ZM324.16 22.457L322.995 19.1566L322.988 19.1593L324.16 22.457ZM350.328 22.457L349.156 25.7548L349.163 25.7575L350.328 22.457ZM360.254 28.0859L357.951 30.7217C357.956 30.7257 357.96 30.7296 357.965 30.7336L360.254 28.0859ZM366.57 36.4219L363.39 37.8831C363.394 37.891 363.397 37.8988 363.401 37.9067L366.57 36.4219ZM366.57 56.875L363.401 55.3902C363.397 55.398 363.394 55.4059 363.39 55.4137L366.57 56.875ZM360.254 65.2109L357.965 62.5633C357.96 62.5673 357.956 62.5712 357.951 62.5752L360.254 65.2109ZM350.328 70.8398L349.163 67.5394L349.156 67.5421L350.328 70.8398ZM324.16 70.8398L322.988 74.1376L322.995 74.1403L324.16 70.8398ZM314.234 65.2109L311.932 67.8467C311.936 67.8507 311.941 67.8546 311.945 67.8586L314.234 65.2109ZM307.918 56.875L304.738 58.3363C304.741 58.3441 304.745 58.352 304.749 58.3598L307.918 56.875ZM320.293 52.4492L317.086 53.8521C317.095 53.8724 317.104 53.8926 317.114 53.9127L320.293 52.4492ZM323.859 57.2617L321.507 59.8537C321.524 59.8689 321.541 59.8839 321.558 59.8987L323.859 57.2617ZM329.574 60.5703L328.355 63.8509C328.371 63.8571 328.388 63.8633 328.405 63.8692L329.574 60.5703ZM344.914 60.5703L346.097 63.8645C346.104 63.8617 346.112 63.8588 346.12 63.8559L344.914 60.5703ZM350.629 57.2617L352.954 59.8777L352.957 59.875L350.629 57.2617ZM354.195 52.4492L351.007 51.0047C351.004 51.0123 351 51.02 350.997 51.0277L354.195 52.4492ZM354.195 40.8477L350.989 42.2505C350.995 42.2645 351.001 42.2784 351.007 42.2922L354.195 40.8477ZM350.629 36.0352L348.277 38.6271C348.294 38.6423 348.311 38.6573 348.328 38.6721L350.629 36.0352ZM344.914 32.7266L343.694 36.0072C343.711 36.0134 343.728 36.0195 343.745 36.0255L344.914 32.7266ZM329.574 32.7266L330.757 36.0207C330.765 36.0179 330.772 36.0151 330.78 36.0122L329.574 32.7266ZM323.859 36.0352L326.185 38.6511L326.188 38.6485L323.859 36.0352ZM320.293 40.8477L317.105 39.4031C317.099 39.417 317.093 39.4309 317.086 39.4448L320.293 40.8477ZM309.227 46.6484C309.227 43.4943 309.856 40.5862 311.098 37.8831L304.738 34.9606C303.058 38.617 302.227 42.5265 302.227 46.6484H309.227ZM311.087 37.9067C312.365 35.1795 314.17 32.7894 316.537 30.7217L311.932 25.4502C308.856 28.1377 306.45 31.3048 304.749 34.9371L311.087 37.9067ZM316.523 30.7336C318.905 28.6744 321.822 27.0029 325.333 25.7548L322.988 19.1593C318.764 20.6612 315.064 22.7423 311.945 25.4383L316.523 30.7336ZM325.325 25.7575C328.789 24.5351 332.755 23.8945 337.266 23.8945V16.8945C332.094 16.8945 327.323 17.629 322.995 19.1566L325.325 25.7575ZM337.266 23.8945C341.777 23.8945 345.726 24.5352 349.156 25.7548L351.501 19.1593C347.196 17.6288 342.436 16.8945 337.266 16.8945V23.8945ZM349.163 25.7575C352.7 27.0059 355.608 28.6744 357.951 30.7217L362.557 25.4502C359.457 22.7422 355.747 20.6581 351.493 19.1566L349.163 25.7575ZM357.965 30.7336C360.351 32.797 362.146 35.1758 363.39 37.8831L369.751 34.9606C368.073 31.3085 365.656 28.1301 362.543 25.4383L357.965 30.7336ZM363.401 37.9067C364.665 40.6047 365.305 43.5046 365.305 46.6484H372.305C372.305 42.5163 371.455 38.5984 369.74 34.9371L363.401 37.9067ZM365.305 46.6484C365.305 49.7923 364.665 52.6922 363.401 55.3902L369.74 58.3598C371.455 54.6985 372.305 50.7806 372.305 46.6484H365.305ZM363.39 55.4137C362.146 58.121 360.351 60.4999 357.965 62.5633L362.543 67.8586C365.656 65.1668 368.073 61.9883 369.751 58.3363L363.39 55.4137ZM357.951 62.5752C355.608 64.6225 352.7 66.291 349.163 67.5394L351.493 74.1403C355.747 72.6387 359.457 70.5546 362.557 67.8467L357.951 62.5752ZM349.156 67.5421C345.726 68.7616 341.777 69.4023 337.266 69.4023V76.4023C342.436 76.4023 347.196 75.668 351.501 74.1376L349.156 67.5421ZM337.266 69.4023C332.755 69.4023 328.789 68.7618 325.325 67.5394L322.995 74.1403C327.323 75.6679 332.094 76.4023 337.266 76.4023V69.4023ZM325.333 67.5421C321.822 66.294 318.905 64.6225 316.523 62.5633L311.945 67.8586C315.064 70.5546 318.764 72.6357 322.988 74.1376L325.333 67.5421ZM316.537 62.5752C314.17 60.5074 312.365 58.1173 311.087 55.3902L304.749 58.3598C306.45 61.992 308.856 65.1592 311.932 67.8467L316.537 62.5752ZM311.098 55.4137C309.856 52.7107 309.227 49.8025 309.227 46.6484H302.227C302.227 50.7704 303.058 54.6799 304.738 58.3363L311.098 55.4137ZM315.59 46.6484C315.59 49.157 316.088 51.569 317.086 53.8521L323.5 51.0464C322.894 49.6628 322.59 48.2076 322.59 46.6484H315.59ZM317.114 53.9127C318.151 56.1672 319.63 58.15 321.507 59.8537L326.211 54.6698C324.995 53.5662 324.096 52.3406 323.472 50.9857L317.114 53.9127ZM321.558 59.8987C323.494 61.5879 325.779 62.8932 328.355 63.8509L330.794 57.2897C328.901 56.586 327.376 55.6855 326.161 54.6247L321.558 59.8987ZM328.405 63.8692C331.108 64.8273 334.078 65.2734 337.266 65.2734V58.2734C334.725 58.2734 332.566 57.9175 330.743 57.2714L328.405 63.8692ZM337.266 65.2734C340.452 65.2734 343.414 64.8276 346.097 63.8645L343.732 57.2761C341.946 57.9172 339.808 58.2734 337.266 58.2734V65.2734ZM346.12 63.8559C348.728 62.8986 351.03 61.5878 352.954 59.8777L348.304 54.6458C347.134 55.6856 345.626 56.5806 343.708 57.2847L346.12 63.8559ZM352.957 59.875C354.878 58.1635 356.376 56.1606 357.394 53.8707L350.997 51.0277C350.411 52.3472 349.531 53.5526 348.301 54.6484L352.957 59.875ZM357.383 53.8938C358.422 51.6017 358.941 49.1751 358.941 46.6484H351.941C351.941 48.1894 351.63 49.63 351.007 51.0047L357.383 53.8938ZM358.941 46.6484C358.941 44.1217 358.422 41.6951 357.383 39.4031L351.007 42.2922C351.63 43.6668 351.941 45.1074 351.941 46.6484H358.941ZM357.402 39.4448C356.383 37.117 354.877 35.0971 352.93 33.3982L348.328 38.6721C349.532 39.7233 350.403 40.9117 350.989 42.2505L357.402 39.4448ZM352.981 33.4432C351.043 31.6848 348.719 30.3617 346.083 29.4276L343.745 36.0255C345.635 36.6956 347.121 37.5783 348.277 38.6271L352.981 33.4432ZM346.134 29.446C343.439 28.4442 340.465 27.9805 337.266 27.9805V34.9805C339.796 34.9805 341.92 35.3475 343.694 36.0072L346.134 29.446ZM337.266 27.9805C334.065 27.9805 331.083 28.4445 328.368 29.4409L330.78 36.0122C332.592 35.3472 334.737 34.9805 337.266 34.9805V27.9805ZM328.392 29.4324C325.788 30.3671 323.481 31.6849 321.531 33.4218L326.188 38.6485C327.389 37.5781 328.892 36.6902 330.757 36.0207L328.392 29.4324ZM321.534 33.4192C319.631 35.1105 318.144 37.1104 317.105 39.4031L323.481 42.2922C324.104 40.9182 324.994 39.7098 326.185 38.6511L321.534 33.4192ZM317.086 39.4448C316.088 41.7279 315.59 44.1399 315.59 46.6484H322.59C322.59 45.0893 322.894 43.6341 323.5 42.2505L317.086 39.4448ZM381.695 0.714844V-2.78516C379.762 -2.78516 378.195 -1.21815 378.195 0.714844H381.695ZM394.414 0.714844H397.914C397.914 -1.21815 396.347 -2.78516 394.414 -2.78516V0.714844ZM394.414 42.8242H390.914C390.914 44.2091 391.731 45.4637 392.997 46.0244C394.263 46.5852 395.741 46.3466 396.766 45.4159L394.414 42.8242ZM418.133 21.2969V17.7969C417.263 17.7969 416.425 18.1207 415.781 18.7052L418.133 21.2969ZM437.598 21.2969L439.931 23.9053C441.013 22.9378 441.385 21.4033 440.867 20.0478C440.349 18.6923 439.049 17.7969 437.598 17.7969V21.2969ZM411.086 45.0156L408.752 42.4072C408.025 43.0574 407.603 43.9815 407.586 44.9566C407.57 45.9317 407.961 46.8695 408.666 47.5439L411.086 45.0156ZM439.273 72V75.5C440.703 75.5 441.989 74.6306 442.521 73.3041C443.054 71.9775 442.726 70.4603 441.694 69.4718L439.273 72ZM420.195 72L417.761 74.5146C418.414 75.1466 419.287 75.5 420.195 75.5V72ZM401.332 53.7383L403.766 51.2236C402.448 49.947 400.367 49.9059 398.999 51.1295L401.332 53.7383ZM394.414 59.9258L392.081 57.317C391.338 57.981 390.914 58.9298 390.914 59.9258H394.414ZM394.414 72V75.5C396.347 75.5 397.914 73.933 397.914 72H394.414ZM381.695 72H378.195C378.195 73.933 379.762 75.5 381.695 75.5V72ZM381.695 4.21484H394.414V-2.78516H381.695V4.21484ZM390.914 0.714844V42.8242H397.914V0.714844H390.914ZM396.766 45.4159L420.485 23.8886L415.781 18.7052L392.062 40.2325L396.766 45.4159ZM418.133 24.7969H437.598V17.7969H418.133V24.7969ZM435.264 18.6884L408.752 42.4072L413.42 47.6241L439.931 23.9053L435.264 18.6884ZM408.666 47.5439L436.853 74.5282L441.694 69.4718L413.506 42.4874L408.666 47.5439ZM439.273 68.5H420.195V75.5H439.273V68.5ZM422.63 69.4854L403.766 51.2236L398.898 56.2529L417.761 74.5146L422.63 69.4854ZM398.999 51.1295L392.081 57.317L396.747 62.5345L403.665 56.347L398.999 51.1295ZM390.914 59.9258V72H397.914V59.9258H390.914ZM394.414 68.5H381.695V75.5H394.414V68.5ZM385.195 72V0.714844H378.195V72H385.195Z" fill="#436E85"/>
</svg>
