<svg width="85" height="68" viewBox="0 0 134 134" fill="none" xmlns="http://www.w3.org/2000/svg">
    <rect width="134" height="134" rx="18" fill="#1A2932"/>
    <path d="M26.8203 31.8398H40.5273V99H26.8203V31.8398ZM57.9297 31.8398H71.5508V87.0547H110.609V99H57.9297V31.8398Z" fill="#436E85"/>
    <path d="M26.8203 31.8398V24.8398C22.9543 24.8398 19.8203 27.9739 19.8203 31.8398H26.8203ZM40.5273 31.8398H47.5273C47.5273 27.9739 44.3933 24.8398 40.5273 24.8398V31.8398ZM40.5273 99V106C44.3933 106 47.5273 102.866 47.5273 99H40.5273ZM26.8203 99H19.8203C19.8203 102.866 22.9543 106 26.8203 106V99ZM26.8203 38.8398H40.5273V24.8398H26.8203V38.8398ZM33.5273 31.8398V99H47.5273V31.8398H33.5273ZM40.5273 92H26.8203V106H40.5273V92ZM33.8203 99V31.8398H19.8203V99H33.8203ZM57.9297 31.8398V24.8398C54.0637 24.8398 50.9297 27.9739 50.9297 31.8398H57.9297ZM71.5508 31.8398H78.5508C78.5508 27.9739 75.4168 24.8398 71.5508 24.8398V31.8398ZM71.5508 87.0547H64.5508C64.5508 90.9207 67.6848 94.0547 71.5508 94.0547V87.0547ZM110.609 87.0547H117.609C117.609 83.1887 114.475 80.0547 110.609 80.0547V87.0547ZM110.609 99V106C114.475 106 117.609 102.866 117.609 99H110.609ZM57.9297 99H50.9297C50.9297 102.866 54.0637 106 57.9297 106V99ZM57.9297 38.8398H71.5508V24.8398H57.9297V38.8398ZM64.5508 31.8398V87.0547H78.5508V31.8398H64.5508ZM71.5508 94.0547H110.609V80.0547H71.5508V94.0547ZM103.609 87.0547V99H117.609V87.0547H103.609ZM110.609 92H57.9297V106H110.609V92ZM64.9297 99V31.8398H50.9297V99H64.9297Z" fill="#436E85"/>
</svg>
