<svg width="35" height="35" viewBox="0 0 35 35" fill="none" xmlns="http://www.w3.org/2000/svg">
    <path d="M22.6194 17.6476C24.3025 16.4561 25.5629 14.7599 26.2181 12.8046C26.8734 10.8493 26.8896 8.73617 26.2644 6.77102C25.6392 4.80587 24.405 3.09058 22.7404 1.87333C21.0757 0.656086 19.067 0 17.0048 0C14.9426 0 12.9339 0.656086 11.2692 1.87333C9.60459 3.09058 8.37038 4.80587 7.74517 6.77102C7.11996 8.73617 7.13617 10.8493 7.79145 12.8046C8.44673 14.7599 9.70711 16.4561 11.3902 17.6476C8.10799 18.6042 5.22409 20.5985 3.17063 23.3319C1.11717 26.0652 0.00473581 29.3904 0 32.8092C0 33.1313 0.127968 33.4403 0.355754 33.6681C0.583539 33.8958 0.892482 34.0238 1.21462 34.0238H32.7947C33.1169 34.0238 33.4258 33.8958 33.6536 33.6681C33.8814 33.4403 34.0093 33.1313 34.0093 32.8092C34.0046 29.3905 32.8922 26.0653 30.8388 23.3319C28.7854 20.5986 25.9016 18.6042 22.6194 17.6476ZM9.71696 9.73142C9.71696 8.29004 10.1444 6.88104 10.9452 5.68258C11.7459 4.48412 12.8841 3.55004 14.2158 2.99845C15.5474 2.44686 17.0128 2.30253 18.4264 2.58373C19.8401 2.86493 21.1387 3.55902 22.1579 4.57822C23.1771 5.59743 23.8712 6.89598 24.1524 8.30966C24.4336 9.72333 24.2892 11.1887 23.7376 12.5203C23.1861 13.852 22.252 14.9901 21.0535 15.7909C19.8551 16.5917 18.446 17.0191 17.0047 17.0191C15.0725 17.0169 13.2201 16.2484 11.8539 14.8822C10.4877 13.5159 9.71916 11.6636 9.71696 9.73142ZM2.4839 31.5946C2.79085 28.2765 4.32497 25.1925 6.78601 22.946C9.24706 20.6995 12.4579 19.4523 15.7901 19.4484H18.2193C21.5515 19.4523 24.7623 20.6995 27.2233 22.946C29.6844 25.1925 31.2185 28.2765 31.5255 31.5946H2.4839Z" fill="#436E85"/>
</svg>
