<svg width="25" fill="#111" height="25" viewBox="0 0 25 25" fill="none" xmlns="http://www.w3.org/2000/svg">
    <path d="M0.152567 15.5711C0.236364 15.513 0.33592 15.4819 0.437908 15.4819C0.539896 15.4819 0.639454 15.513 0.723251 15.5711C2.77794 16.8287 5.1968 17.3584 7.58974 17.0746C9.98267 16.7908 12.2102 15.7101 13.9129 14.0068C15.6157 12.3035 16.6945 10.077 16.9754 7.68619C17.2562 5.29542 16.7227 2.87984 15.4609 0.829045C15.3865 0.743943 15.3431 0.636175 15.3379 0.523302C15.3326 0.410428 15.3658 0.299104 15.432 0.207471C15.4982 0.115837 15.5935 0.0492962 15.7023 0.0186917C15.8112 -0.0119129 15.9273 -0.00477697 16.0316 0.0389366C18.1308 0.694869 20.025 1.88067 21.5313 3.48173C23.0376 5.08278 24.1049 7.04493 24.6301 9.17851C25.1554 11.3121 25.1207 13.5449 24.5295 15.6612C23.9383 17.7775 22.8105 19.7056 21.2553 21.2592C19.7 22.8129 17.7698 23.9394 15.6513 24.53C13.5328 25.1206 11.2975 25.1552 9.16169 24.6305C7.02584 24.1059 5.06161 23.0397 3.45885 21.535C1.8561 20.0303 0.669029 18.1381 0.0123997 16.0411C-0.00662422 15.9573 -0.00372124 15.8701 0.0208302 15.7877C0.0453815 15.7054 0.0907516 15.6308 0.152567 15.5711Z" />
</svg>
