<svg width="388" height="471" viewBox="0 0 388 471" fill="none" xmlns="http://www.w3.org/2000/svg">
    <rect width="388" height="471" transform="matrix(-1 0 0 1 388 0)" fill="#436E85"/>
    <path d="M168.344 296.068V294.445C168.524 277.217 170.328 263.506 173.756 253.314C177.184 243.121 182.054 234.868 188.368 228.554C194.682 222.24 202.259 216.423 211.098 211.101C216.42 207.854 221.201 204.02 225.44 199.6C229.679 195.091 233.017 189.904 235.452 184.041C237.978 178.178 239.24 171.684 239.24 164.558C239.24 155.719 237.166 148.052 233.017 141.558C228.868 135.063 223.32 130.057 216.375 126.539C209.43 123.022 201.718 121.263 193.239 121.263C185.843 121.263 178.717 122.796 171.862 125.863C165.007 128.93 159.279 133.755 154.679 140.34C150.079 146.924 147.418 155.538 146.696 166.182H112.601C113.323 150.848 117.292 137.724 124.507 126.81C131.814 115.896 141.42 107.553 153.326 101.78C165.322 96.0071 178.627 93.1207 193.239 93.1207C209.114 93.1207 222.914 96.2777 234.64 102.592C246.456 108.906 255.566 117.565 261.97 128.569C268.465 139.573 271.712 152.111 271.712 166.182C271.712 176.104 270.179 185.078 267.112 193.106C264.135 201.134 259.806 208.305 254.123 214.619C248.531 220.933 241.766 226.525 233.828 231.396C225.891 236.357 219.532 241.588 214.751 247.09C209.971 252.502 206.498 258.951 204.333 266.438C202.169 273.924 200.996 283.26 200.816 294.445V296.068H168.344ZM185.662 376.165C178.988 376.165 173.26 373.775 168.479 368.994C163.699 364.213 161.309 358.486 161.309 351.811C161.309 345.136 163.699 339.409 168.479 334.628C173.26 329.848 178.988 327.457 185.662 327.457C192.337 327.457 198.065 329.848 202.845 334.628C207.626 339.409 210.016 345.136 210.016 351.811C210.016 356.231 208.888 360.29 206.633 363.988C204.469 367.686 201.537 370.663 197.839 372.918C194.231 375.082 190.172 376.165 185.662 376.165Z" fill="#1A2932"/>
</svg>
